<svg width="54" height="66" viewBox="0 0 54 66" fill="none" xmlns="http://www.w3.org/2000/svg">
<g id="Vector">
<path d="M6.7525 4.34875L4.80466 10.3283L2.86681 4.34875H0L3.4162 14.2718H5.83352L7.77137 8.60855L9.7192 14.2718H12.1265L15.5427 4.34875H12.6859L10.7381 10.3283L8.80022 4.34875H6.7525Z" fill="white"/>
<path d="M19.838 4.34875H17.071V14.2718H19.838V4.34875ZM20.0377 1.52206C20.0377 1.06742 19.8879 0.691847 19.5982 0.415108C19.2986 0.138369 18.899 0 18.3996 0C17.9401 0 17.5705 0.138369 17.2908 0.415108C17.0111 0.691847 16.8713 1.06742 16.8713 1.52206C16.8713 1.97671 17.0011 2.3424 17.2808 2.61913C17.5605 2.89587 17.9301 3.03424 18.3996 3.03424C18.899 3.03424 19.2986 2.89587 19.5982 2.61913C19.8879 2.3424 20.0377 1.97671 20.0377 1.52206Z" fill="white"/>
<path d="M29.5572 5.67314L29.2075 5.28769C28.9778 5.05048 28.5683 4.79351 27.9889 4.53654C27.4095 4.27957 26.7703 4.15108 26.081 4.15108C24.9822 4.15108 24.0633 4.47724 23.3141 5.11967C22.5649 5.77198 22.1953 6.49348 22.1953 7.28416C22.1953 7.89694 22.3452 8.41088 22.6648 8.80622C22.9745 9.21145 23.3541 9.50795 23.8036 9.69574C24.2531 9.89341 24.7125 10.0515 25.172 10.1899C25.6315 10.3283 26.0111 10.4864 26.3307 10.6643C26.6404 10.8422 26.8002 11.0696 26.8002 11.3364C26.8002 11.6131 26.6804 11.8306 26.4606 11.9986C26.2408 12.1666 25.9112 12.2457 25.4717 12.2457C25.0721 12.2457 24.6826 12.1469 24.313 11.9393C23.9334 11.7317 23.6937 11.5637 23.5738 11.4451C23.4539 11.3265 23.374 11.2178 23.3241 11.1387L21.7858 12.6509L21.9256 12.8585C22.0255 12.9771 22.1853 13.1253 22.4051 13.3032C22.6249 13.4811 22.8946 13.6492 23.1942 13.8271C23.4939 14.005 23.8835 14.1631 24.3629 14.2817C24.8424 14.4102 25.3418 14.4695 25.8812 14.4695C27.1199 14.4695 28.0888 14.173 28.798 13.5701C29.5072 12.9771 29.8668 12.2259 29.8668 11.3364C29.8668 10.7236 29.707 10.1998 29.3973 9.78469C29.0777 9.36958 28.6981 9.06319 28.2386 8.87541C27.7791 8.68762 27.3196 8.52948 26.8701 8.39112C26.4206 8.25275 26.0411 8.10449 25.7314 7.92659C25.4118 7.75857 25.2619 7.54113 25.2619 7.28416C25.2619 7.07661 25.3718 6.88882 25.5916 6.73068C25.8113 6.57255 26.111 6.48359 26.4906 6.48359C26.7902 6.48359 27.0799 6.56266 27.3696 6.71092C27.6493 6.85917 27.8391 6.97777 27.929 7.06672C28.0189 7.16556 28.0888 7.23474 28.1287 7.28416L29.5572 5.67314Z" fill="white"/>
<path d="M41.424 10.2196L41.5239 9.11261C41.5239 7.69927 41.0444 6.52313 40.0955 5.57431C39.1365 4.62549 37.9478 4.15108 36.5194 4.15108C35.081 4.15108 33.8524 4.66502 32.8335 5.67314C31.8047 6.68126 31.2952 7.89694 31.2952 9.31028C31.2952 10.7335 31.8147 11.9492 32.8535 12.9573C33.8923 13.9654 35.141 14.4695 36.6193 14.4695C37.1387 14.4695 37.6382 14.4102 38.1276 14.2916C38.6171 14.173 39.0166 14.0445 39.3263 13.8864C39.626 13.7282 39.9156 13.5503 40.1953 13.3526C40.465 13.155 40.6448 13.0166 40.7248 12.9375L40.9145 12.7498L39.4861 10.9312L39.1964 11.2376C39.0166 11.4451 38.697 11.6527 38.2575 11.8503C37.818 12.048 37.3385 12.1469 36.8191 12.1469C36.0999 12.1469 35.5006 11.969 35.0311 11.5934C34.5516 11.2178 34.2619 10.7632 34.162 10.2196H41.424ZM36.5194 6.48359C37.0988 6.48359 37.5982 6.6615 37.9978 6.99754C38.3973 7.34346 38.657 7.77834 38.7669 8.30216H34.162C34.3219 7.76845 34.6115 7.32369 35.0211 6.98765C35.4306 6.65161 35.9301 6.48359 36.5194 6.48359Z" fill="white"/>
<path d="M6.65261 31.1397L10.4284 21.2166H7.57159L5.21421 27.7991L2.86681 21.2166H0L3.78579 31.1397H6.65261Z" fill="white"/>
<path d="M14.7236 21.2166H11.9567V31.1397H14.7236V21.2166ZM14.9234 18.3899C14.9234 17.9353 14.7736 17.5597 14.4839 17.283C14.1842 17.0063 13.7847 16.8679 13.2852 16.8679C12.8257 16.8679 12.4562 17.0063 12.1765 17.283C11.8968 17.5597 11.7569 17.9353 11.7569 18.3899C11.7569 18.8446 11.8868 19.2103 12.1665 19.487C12.4462 19.7638 12.8158 19.9021 13.2852 19.9021C13.7847 19.9021 14.1842 19.7638 14.4839 19.487C14.7736 19.2103 14.9234 18.8446 14.9234 18.3899Z" fill="white"/>
<path d="M24.4428 22.541L24.0932 22.1556C23.8635 21.9184 23.4539 21.6614 22.8746 21.4044C22.2952 21.1475 21.6559 21.019 20.9667 21.019C19.8679 21.019 18.9489 21.3451 18.1998 21.9876C17.4506 22.6399 17.081 23.3614 17.081 24.152C17.081 24.7648 17.2309 25.2788 17.5505 25.6741C17.8602 26.0793 18.2397 26.3758 18.6892 26.5636C19.1387 26.7613 19.5982 26.9194 20.0577 27.0578C20.5172 27.1962 20.8968 27.3543 21.2164 27.5322C21.5261 27.7101 21.6859 27.9374 21.6859 28.2043C21.6859 28.481 21.566 28.6985 21.3463 28.8665C21.1265 29.0345 20.7969 29.1136 20.3574 29.1136C19.9578 29.1136 19.5683 29.0147 19.1987 28.8072C18.8191 28.5996 18.5794 28.4316 18.4595 28.313C18.3396 28.1944 18.2597 28.0857 18.2098 28.0066L16.6715 29.5188L16.8113 29.7264C16.9112 29.845 17.071 29.9932 17.2908 30.1711C17.5105 30.349 17.7802 30.517 18.0799 30.6949C18.3796 30.8728 18.7691 31.031 19.2486 31.1496C19.7281 31.2781 20.2275 31.3374 20.7669 31.3374C22.0055 31.3374 22.9745 31.0409 23.6837 30.438C24.3929 29.845 24.7525 29.0938 24.7525 28.2043C24.7525 27.5915 24.5927 27.0677 24.283 26.6526C23.9634 26.2375 23.5838 25.9311 23.1243 25.7433C22.6648 25.5555 22.2053 25.3974 21.7558 25.259C21.3063 25.1206 20.9267 24.9724 20.6171 24.7945C20.2974 24.6265 20.1476 24.409 20.1476 24.152C20.1476 23.9445 20.2575 23.7567 20.4772 23.5986C20.697 23.4404 20.9967 23.3515 21.3762 23.3515C21.6759 23.3515 21.9656 23.4305 22.2553 23.5788C22.535 23.7271 22.7248 23.8457 22.8147 23.9346C22.9046 24.0334 22.9745 24.1026 23.0144 24.152L24.4428 22.541Z" fill="white"/>
<path d="M29.667 21.2166H26.9001V31.1397H29.667V21.2166ZM29.8668 18.3899C29.8668 17.9353 29.717 17.5597 29.4273 17.283C29.1276 17.0063 28.7281 16.8679 28.2286 16.8679C27.7691 16.8679 27.3996 17.0063 27.1199 17.283C26.8402 17.5597 26.7003 17.9353 26.7003 18.3899C26.7003 18.8446 26.8302 19.2103 27.1099 19.487C27.3896 19.7638 27.7592 19.9021 28.2286 19.9021C28.7281 19.9021 29.1276 19.7638 29.4273 19.487C29.717 19.2103 29.8668 18.8446 29.8668 18.3899Z" fill="white"/>
<path d="M34.6815 26.1881C34.6815 25.4468 34.9212 24.8241 35.4107 24.3102C35.8901 23.8061 36.4695 23.5492 37.1387 23.5492C37.798 23.5492 38.3774 23.8061 38.8668 24.3102C39.3463 24.8241 39.596 25.4468 39.596 26.1881C39.596 26.9293 39.3463 27.552 38.8668 28.056C38.3774 28.5601 37.798 28.8072 37.1387 28.8072C36.4695 28.8072 35.8901 28.5601 35.4107 28.056C34.9212 27.552 34.6815 26.9293 34.6815 26.1881ZM42.4528 26.1782C42.4528 24.8044 41.9234 23.5986 40.8646 22.5707C39.8058 21.5428 38.5671 21.0289 37.1387 21.0289C35.7003 21.0289 34.4617 21.5428 33.4029 22.5707C32.3441 23.5986 31.8147 24.8044 31.8147 26.1782C31.8147 27.5619 32.3441 28.7677 33.4029 29.7955C34.4617 30.8234 35.7003 31.3374 37.1387 31.3374C38.5671 31.3374 39.8058 30.8234 40.8646 29.7955C41.9234 28.7677 42.4528 27.5619 42.4528 26.1782Z" fill="white"/>
<path d="M47.2575 21.2166H44.5006V31.1397H47.2575V25.9805C47.2575 25.2392 47.4373 24.666 47.8069 24.2608C48.1765 23.8555 48.6759 23.648 49.3052 23.648C49.8746 23.648 50.3441 23.8358 50.7037 24.2113C51.0633 24.5869 51.2431 25.0712 51.2431 25.6741V31.1397H54V25.3677C54 24.0433 53.6404 22.9858 52.9212 22.1951C52.202 21.4143 51.263 21.019 50.1143 21.019C49.5749 21.019 49.0555 21.1573 48.556 21.4143C48.0566 21.6812 47.737 21.8887 47.5871 22.0469C47.4473 22.205 47.3274 22.3335 47.2475 22.4422L47.2575 21.2166Z" fill="white"/>
<path d="M0.609323 43.0461C0.609323 44.4297 1.13873 45.6355 2.21754 46.6634C3.28635 47.6913 4.55494 48.2053 6.02331 48.2053C6.54273 48.2053 7.04218 48.1361 7.51165 47.9878C7.98113 47.8396 8.36071 47.6814 8.65039 47.5035C8.95006 47.3256 9.21976 47.128 9.46948 46.9006C9.72919 46.6733 9.88901 46.5152 9.95893 46.4163C10.0289 46.3175 10.0788 46.2483 10.1188 46.189L8.48058 44.4693L8.21088 44.8053C8.03108 45.0228 7.73141 45.2402 7.32186 45.4576C6.91232 45.6751 6.4828 45.7838 6.02331 45.7838C5.30411 45.7838 4.68479 45.5169 4.15538 44.9832C3.63596 44.4495 3.36626 43.8071 3.36626 43.0559C3.36626 42.3048 3.63596 41.6525 4.15538 41.1188C4.67481 40.5851 5.30411 40.3182 6.02331 40.3182C6.4828 40.3182 6.91232 40.4467 7.32186 40.6839C7.73141 40.9211 8.00111 41.1188 8.12098 41.267C8.24084 41.4252 8.33074 41.5438 8.38069 41.6327L10.1188 39.913L9.96892 39.7054C9.86903 39.5671 9.69922 39.3892 9.45949 39.1915C9.22975 38.9938 8.96004 38.806 8.66038 38.6084C8.36071 38.4107 7.98113 38.2427 7.51165 38.1043C7.04218 37.9659 6.54273 37.8869 6.02331 37.8869C4.55494 37.8869 3.28635 38.4107 2.20755 39.4386C1.13873 40.4665 0.609323 41.6722 0.609323 43.0461Z" fill="white"/>
<path d="M14.2242 43.0559C14.2242 42.3147 14.4639 41.692 14.9534 41.1781C15.4329 40.674 16.0122 40.417 16.6815 40.417C17.3407 40.417 17.9201 40.674 18.4095 41.1781C18.889 41.692 19.1387 42.3147 19.1387 43.0559C19.1387 43.7972 18.889 44.4199 18.4095 44.9239C17.9201 45.428 17.3407 45.6751 16.6815 45.6751C16.0122 45.6751 15.4329 45.428 14.9534 44.9239C14.4639 44.4199 14.2242 43.7972 14.2242 43.0559ZM21.9956 43.0461C21.9956 41.6722 21.4661 40.4665 20.4073 39.4386C19.3485 38.4107 18.1099 37.8967 16.6815 37.8967C15.2431 37.8967 14.0044 38.4107 12.9456 39.4386C11.8868 40.4665 11.3574 41.6722 11.3574 43.0461C11.3574 44.4297 11.8868 45.6355 12.9456 46.6634C14.0044 47.6913 15.2431 48.2053 16.6815 48.2053C18.1099 48.2053 19.3485 47.6913 20.4073 46.6634C21.4661 45.6355 21.9956 44.4297 21.9956 43.0461Z" fill="white"/>
<path d="M30.0766 37.9857H29.667C29.1176 37.9857 28.5982 38.1142 28.0988 38.3514C27.5993 38.5985 27.2797 38.7961 27.1299 38.9444C26.99 39.0926 26.8701 39.2112 26.7902 39.3002V38.0845H24.0333V48.0076H26.7902V43.2536C26.7902 42.4036 27.01 41.7513 27.4295 41.2967C27.8491 40.842 28.4284 40.6147 29.1476 40.6147C29.5572 40.6246 29.8668 40.6641 30.0666 40.7333L30.0766 37.9857Z" fill="white"/>
<path d="M37.3385 48.2053C38.6371 48.2053 39.7558 47.7111 40.7148 46.7128C41.6737 45.7146 42.1532 44.489 42.1532 43.0461C42.1532 41.6031 41.6737 40.3874 40.7148 39.3892C39.7558 38.3909 38.6371 37.8869 37.3385 37.8869C36.9689 37.8869 36.6193 37.9462 36.2797 38.045C35.9401 38.1438 35.6604 38.2624 35.4506 38.3909C35.2309 38.5194 35.0311 38.6677 34.8513 38.8258C34.6715 38.9839 34.5516 39.0926 34.4917 39.1519C34.4317 39.2112 34.3918 39.2607 34.3718 39.3002V38.0845H31.6149V52.2575H34.3718V46.7919L34.6815 47.1576C34.8812 47.3948 35.2309 47.6221 35.7303 47.8593C36.2297 48.0965 36.7592 48.2053 37.3385 48.2053ZM36.8291 40.3182C37.5083 40.3182 38.0877 40.5752 38.5672 41.0891C39.0466 41.6031 39.2864 42.2554 39.2864 43.0559C39.2864 43.8466 39.0466 44.5088 38.5672 45.0228C38.0877 45.5367 37.5083 45.7937 36.8291 45.7937C36.1498 45.7937 35.5705 45.5367 35.091 45.0228C34.6115 44.5088 34.3718 43.8466 34.3718 43.0559C34.3718 42.2554 34.6115 41.6031 35.091 41.0891C35.5705 40.5752 36.1498 40.3182 36.8291 40.3182Z" fill="white"/>
<path d="M43.8912 46.6931C43.8912 47.0983 44.0511 47.4541 44.3707 47.7506C44.6903 48.057 45.0699 48.2053 45.5294 48.2053C45.9789 48.2053 46.3685 48.057 46.6881 47.7506C47.0078 47.4541 47.1676 47.0983 47.1676 46.6931C47.1676 46.2879 47.0078 45.932 46.6881 45.6257C46.3685 45.3292 45.9789 45.171 45.5294 45.171C45.0699 45.171 44.6903 45.3292 44.3707 45.6257C44.0511 45.932 43.8912 46.2879 43.8912 46.6931Z" fill="#08418E"/>
<path d="M0 54.7547H25.0033V61.5019L34.0955 54.7547H53.9845V57.5661H34.2375L22.7303 66V57.5661H0V54.7547Z" fill="#08418E"/>
</g>
</svg>
